<?xml version="1.0" encoding="utf-8"?>
<!-- Generator: Adobe Illustrator 25.0.1, SVG Export Plug-In . SVG Version: 6.00 Build 0)  -->
<svg version="1.1" id="Layer_1" xmlns="http://www.w3.org/2000/svg" xmlns:xlink="http://www.w3.org/1999/xlink" x="0px" y="0px"
	 viewBox="0 0 195.4 36.6" style="enable-background:new 0 0 195.4 36.6;" xml:space="preserve">
<style type="text/css">
	.st0{fill:url(#SVGID_1_);}
	.st1{fill:url(#SVGID_2_);}
	.st2{fill:#100050;}
	.st3{fill:#FF4E00;}
</style>
<g>
	<g>
		<g>
			<linearGradient id="SVGID_1_" gradientUnits="userSpaceOnUse" x1="3" y1="13.7873" x2="38.7094" y2="13.7873">
				<stop  offset="0" style="stop-color:#F3AF1C"/>
				<stop  offset="0.99" style="stop-color:#EE4500"/>
			</linearGradient>
			<path class="st0" d="M20.8,3L20.8,3c-0.5,0-0.9,0.1-1.2,0.5L3.5,19.8c-0.7,0.7-0.6,2,0.2,2.9c0,0,0.3,0.4,1.2,1.3
				c0.8,0.8,1.4,0.6,2.2,0c0.8-0.6,12.6-8.8,12.6-8.8c1-0.6,1.5-0.6,2.4,0c0,0,11.8,8.2,12.6,8.8c0.8,0.6,1.3,0.8,2.2,0
				c0.8-0.8,1.2-1.3,1.2-1.3c0.8-0.9,0.9-2.2,0.2-2.9L22.1,3.5C21.8,3.1,21.3,3,20.8,3L20.8,3C20.9,3,20.9,3,20.8,3
				C20.8,3,20.8,3,20.8,3z"/>
			<g>
				<defs>
					<path id="XMLID_115_" d="M19.9,20.4L6.5,29.6c-0.6,0.6-0.5,1.7,0.1,2.4c0,0,0.3,0.4,1,1.1c0.1,0.1,0.6,0.5,1.4,0.4
						c2.7-0.9,8.7-3.5,10.6-4.3c0.6-0.2,0.9-0.3,1.3-0.3c0.4,0,0.7,0.1,1.3,0.3c1.9,0.7,7.8,3.4,10.6,4.3c0.7,0.2,1.2-0.2,1.4-0.4
						c0.7-0.7,1-1.1,1-1.1c0.7-0.7,0.7-1.8,0.1-2.4l-13.4-9.2C21.1,19.9,20.6,19.9,19.9,20.4z"/>
				</defs>
				<linearGradient id="XMLID_2_" gradientUnits="userSpaceOnUse" x1="6.1258" y1="26.7918" x2="35.582" y2="26.7918">
					<stop  offset="0" style="stop-color:#F4B01B"/>
					<stop  offset="0.99" style="stop-color:#EE4500"/>
				</linearGradient>
				<use xlink:href="#XMLID_115_"  style="overflow:visible;fill:url(#XMLID_2_);"/>
				<clipPath id="XMLID_3_">
					<use xlink:href="#XMLID_115_"  style="overflow:visible;"/>
				</clipPath>
			</g>
		</g>
		<linearGradient id="SVGID_2_" gradientUnits="userSpaceOnUse" x1="6.1258" y1="26.8085" x2="29.592" y2="26.8085">
			<stop  offset="0" style="stop-color:#EF453C"/>
			<stop  offset="0.9774" style="stop-color:#F12C22"/>
		</linearGradient>
		<path class="st1" d="M29.5,25.7c0,0,0.1,0.1,0.1,0.1l-7.8-5.4c-0.4-0.2-0.6-0.3-0.9-0.3c-0.3,0-0.6,0.1-0.9,0.3L6.5,29.6
			c-0.6,0.6-0.5,1.7,0.1,2.4c0,0,0.3,0.4,1,1.1c0.1,0.1,0.5,0.4,1,0.4h0c0.1,0,0.2,0,0.3,0c2.7-0.9,8.7-3.5,10.5-4.3
			c0.4-0.1,0.7-0.2,1-0.3C21.4,27.3,24.4,22.8,29.5,25.7z"/>
	</g>
	<g>
		<g>
			<g>
				<path class="st2" d="M64.3,29.1h-6.2c-2.3,0-4-0.5-5.1-1.4c-1-0.9-1.6-2.4-1.6-4.4V8.2h4.1v15.1c0,0.8,0.2,1.4,0.6,1.7
					c0.4,0.3,1,0.5,2,0.5h6.2V29.1z"/>
				<path class="st2" d="M81.3,29.1h-7.4c-2.3,0-4-0.4-4.9-1.2c-0.9-0.8-1.4-2.2-1.4-4.3V8.2h13.8v3.6h-9.7v4.9h6.8l-0.3,3.6h-6.5
					v2.9c0,0.8,0.2,1.4,0.6,1.7c0.4,0.3,1,0.5,2,0.5h7.1V29.1z"/>
				<path class="st2" d="M101.2,29.1h-4.3l-1.2-3.6h-7l-1.1,3.6h-4.3L90,10c0.3-0.7,0.6-1.1,1-1.4c0.4-0.3,0.8-0.4,1.3-0.4
					c0.5,0,1,0.1,1.3,0.4c0.3,0.2,0.6,0.7,0.9,1.4L101.2,29.1z M94.8,22.1l-2.5-8.3l-2.6,8.3H94.8z"/>
				<path class="st2" d="M120.3,8.2V27c0,0.6-0.2,1.2-0.6,1.7c-0.4,0.5-0.9,0.7-1.4,0.7c-1.4,0-2.5-0.8-3.3-2.3l-7.2-11.3v13.4h-4.1
					V8.2h3.9l8.6,13.7V8.2H120.3z"/>
			</g>
			<path class="st3" d="M138.1,12h-5.6v17.3h-4.1V12h-5.6V8.3h15.3V12z"/>
			<path class="st3" d="M155.1,29.2h-7.4c-2.3,0-4-0.4-4.9-1.2c-0.9-0.8-1.4-2.2-1.4-4.3V8.3h13.8V12h-9.7v4.9h6.8l-0.3,3.6h-6.5
				v2.9c0,0.8,0.2,1.4,0.6,1.7c0.4,0.3,1,0.5,2,0.5h7.1V29.2z"/>
			<path class="st3" d="M169.6,21.1h3.8c0,2.7-0.7,4.7-2,6.1c-1.3,1.4-3.2,2.1-5.6,2.1c-5.3,0-8-3.1-8-9.4v-1.8c0-5,1.4-8.1,4.1-9.3
				c1.1-0.5,2.4-0.8,3.9-0.8c2.2,0,4,0.6,5.4,1.8c1.4,1.2,2.1,3,2.1,5.3h-3.8c-0.2-1.2-0.6-2-1.1-2.6c-0.5-0.6-1.4-0.9-2.6-0.9
				c-1.4,0-2.4,0.4-3.1,1.3c-0.5,0.6-0.7,1.6-0.8,3.1c0,0.5-0.1,1.1-0.1,1.9v1.8c0,2.3,0.3,3.8,0.9,4.6c0.6,0.8,1.6,1.2,3,1.2
				c1.4,0,2.3-0.4,2.8-1.1C169.1,23.9,169.5,22.7,169.6,21.1z"/>
			<path class="st3" d="M192.4,29.2h-4.1v-8.5h-7.7v8.5h-4.1V8.3h4.1v8.8h7.7V8.3h4.1V29.2z"/>
		</g>
	</g>
</g>
</svg>
